<?xml version="1.0" encoding="utf-8"?>
<!-- Generator: Adobe Illustrator 21.0.0, SVG Export Plug-In . SVG Version: 6.00 Build 0)  -->
<svg version="1.1" id="圖層_1" xmlns="http://www.w3.org/2000/svg" xmlns:xlink="http://www.w3.org/1999/xlink" x="0px" y="0px"
	 viewBox="0 0 59.2 59.2" style="enable-background:new 0 0 59.2 59.2;" xml:space="preserve">
<style type="text/css">
	.st0{fill:#B5B5B5;}
	.st1{fill:#FFFFFF;}
	.st2{fill:#FFFFFE;}
</style>
<rect class="st0" width="59.2" height="59.2"/>
<path class="st1" d="M44.8,17c-0.3-1.4-1.4-2.4-2.8-2.6c-0.1,0-0.1,0-0.2,0H17.4c-0.1,0-0.3,0-0.4,0.1c-1.4,0.3-2.4,1.4-2.5,2.8
	c0,0.1,0,0.1,0,0.2v24.5c0,0.2,0,0.3,0.1,0.5c0.3,1.3,1.4,2.3,2.8,2.5c0.1,0,0.1,0,0.2,0h24.4c0.2,0,0.3,0,0.5-0.1
	c1.2-0.3,2.3-1.3,2.5-2.6c0-0.1,0-0.3,0.1-0.4V17.4C44.9,17.3,44.8,17.1,44.8,17z M37.5,16.8c1,0,1.9,0,2.9,0c0.7,0,1.2,0.6,1.2,1.2
	c0,1,0,1.9,0,2.9c0,0.6-0.5,1.2-1.2,1.2c-0.5,0-1,0-1.5,0v0c-0.5,0-0.9,0-1.4,0c-0.6,0-1-0.3-1.2-0.8c0-0.1-0.1-0.3-0.1-0.4
	c0-1,0-1.9,0-2.9C36.2,17.4,36.8,16.8,37.5,16.8z M29.6,23.4c3.5,0,6.3,2.9,6.2,6.3c-0.1,3.4-2.9,6.1-6.3,6c-3.3-0.1-6.1-2.8-6-6.3
	C23.5,26.2,26.2,23.4,29.6,23.4z M41.6,26.8c0,4.5,0,9,0,13.5c0,0.7-0.6,1.2-1.2,1.2c-7.2,0-14.3,0-21.5,0c-0.7,0-1.2-0.6-1.2-1.2
	c0-4.5,0-9,0-13.5v-0.1c1,0,1.9,0,2.9,0c-0.8,2.6-0.5,5.1,0.7,7.5c0.9,1.6,2.1,2.8,3.7,3.7c3.1,1.8,7,1.6,9.9-0.4
	c1.1-0.8,2.1-1.7,2.8-2.9c0.7-1.2,1.2-2.4,1.3-3.8c0.2-1.4,0-2.7-0.4-4L41.6,26.8L41.6,26.8z"/>
</svg>
