<?xml version="1.0" encoding="utf-8"?>
<!-- Generator: Adobe Illustrator 21.0.0, SVG Export Plug-In . SVG Version: 6.00 Build 0)  -->
<svg version="1.1" id="圖層_1" xmlns="http://www.w3.org/2000/svg" xmlns:xlink="http://www.w3.org/1999/xlink" x="0px" y="0px"
	 viewBox="0 0 59.2 59.2" style="enable-background:new 0 0 59.2 59.2;" xml:space="preserve">
<style type="text/css">
	.st0{fill:#B5B5B5;}
	.st1{fill:#FFFFFF;}
	.st2{fill:#FFFFFE;}
</style>
<rect class="st0" width="59.2" height="59.2"/>
<path class="st2" d="M42,17.1c-3.2-2.6-7.5-4.2-12.3-4.2c-4.8,0-9.2,1.6-12.3,4.2c-3.2,2.6-5.2,6.2-5.2,10.1c0,3.5,1.6,6.8,4.2,9.3
	c2.6,2.5,6.3,4.2,10.4,4.8c0.3,0.1,0.6,0.2,0.9,0.3c0.1,0.1,0.2,0.2,0.3,0.2l0,0c0.1,0.1,0.1,0.4,0.1,0.6c0,0.2,0,0.5-0.1,0.7
	l-0.2,1.5l0,0l0,0c0,0.3-0.1,0.7,0,1.1c0.2,0.6,0.8,0.9,2.1,0.3c1.1-0.5,4.4-2.5,7.7-4.9c2.2-1.6,4.4-3.4,5.8-5.1
	c0.2-0.2,0.4-0.5,0.7-0.7l0.1-0.1h0c0.9-1.1,1.6-2.2,2.1-3.4c0.6-1.5,0.9-3,0.9-4.6C47.1,23.3,45.2,19.7,42,17.1L42,17.1z
	 M28.3,23.1c0.1,0,0.2-0.1,0.3-0.1c0.3,0,0.7,0.2,0.9,0.4l3.1,4.2v-3.6c0-0.6,0.5-1.1,1.1-1.1c0.6,0,1.1,0.5,1.1,1.1v6.8
	c0,0.5-0.3,0.9-0.7,1c-0.1,0-0.2,0.1-0.3,0.1c-0.3,0-0.7-0.2-0.9-0.4l-3.1-4.2v3.6c0,0.6-0.5,1.1-1.1,1.1c-0.6,0-1.1-0.5-1.1-1.1
	v-6.8C27.6,23.6,27.9,23.2,28.3,23.1L28.3,23.1z M35.6,30.9v-6.8c0-0.6,0.5-1.1,1.1-1.1h3.4c0.6,0,1.1,0.5,1.1,1.1
	c0,0.6-0.5,1.1-1.1,1.1h-2.3v1.2h2.3c0.6,0,1.1,0.5,1.1,1.1c0,0.6-0.5,1.1-1.1,1.1h-2.3v1.2h2.3c0.6,0,1.1,0.5,1.1,1.1
	c0,0.6-0.5,1.1-1.1,1.1h-3.4C36.1,31.9,35.6,31.4,35.6,30.9L35.6,30.9z M24.5,30.9v-6.8c0-0.6,0.5-1.1,1.1-1.1
	c0.6,0,1.1,0.5,1.1,1.1v6.8c0,0.6-0.5,1.1-1.1,1.1C25,31.9,24.5,31.4,24.5,30.9z M20.7,29.8H23c0.6,0,1.1,0.5,1.1,1.1
	c0,0.6-0.5,1.1-1.1,1.1h-3.4c-0.6,0-1.1-0.5-1.1-1.1v-6.8c0-0.6,0.5-1.1,1.1-1.1c0.6,0,1.1,0.5,1.1,1.1L20.7,29.8L20.7,29.8z"/>
</svg>
