<?xml version="1.0" encoding="utf-8"?>
<!-- Generator: Adobe Illustrator 21.0.0, SVG Export Plug-In . SVG Version: 6.00 Build 0)  -->
<svg version="1.1" id="圖層_1" xmlns="http://www.w3.org/2000/svg" xmlns:xlink="http://www.w3.org/1999/xlink" x="0px" y="0px" viewBox="0 0 51 51" style="enable-background:new 0 0 51 51;" xml:space="preserve">
<style type="text/css">
	.st0{fill:#42777A;}
</style>
<path class="st0" d="M39.5,6.5h-28c-5.5,0-10,4.5-10,10v18c0,5.5,4.5,10,10,10h28c5.5,0,10-4.5,10-10v-18C49.5,11,45,6.5,39.5,6.5z
	 M45.5,34.5c0,3.3-2.7,6-6,6h-28c-3.3,0-6-2.7-6-6v-18c0-3.3,2.7-6,6-6h28c3.3,0,6,2.7,6,6V34.5z M29.7,16.2c-1.5,0-2.9,0.3-4.2,0.9
	c-1.3-0.6-2.7-0.9-4.2-0.9c-5.4,0-9.8,4.4-9.8,9.8c0,5.4,4.4,9.8,9.8,9.8c1.5,0,2.9-0.3,4.2-0.9c1.3,0.6,2.7,0.9,4.2,0.9
	c5.4,0,9.8-4.4,9.8-9.8C39.5,20.6,35.1,16.2,29.7,16.2z M28.2,26c0,2.2-1,4.2-2.7,5.4c-1.6-1.3-2.7-3.2-2.7-5.4c0-2.2,1-4.2,2.7-5.4
	C27.1,21.8,28.2,23.8,28.2,26z M14.5,26c0-3.8,3.1-6.8,6.8-6.8c0.4,0,0.8,0,1.2,0.1c-1.7,1.8-2.7,4.1-2.7,6.7c0,2.6,1,5,2.7,6.7
	c-0.4,0.1-0.8,0.1-1.2,0.1C17.6,32.8,14.5,29.8,14.5,26z M29.7,32.8c-0.4,0-0.8,0-1.2-0.1c1.7-1.8,2.7-4.1,2.7-6.7
	c0-2.6-1-5-2.7-6.7c0.4-0.1,0.8-0.1,1.2-0.1c3.8,0,6.8,3.1,6.8,6.8C36.5,29.8,33.4,32.8,29.7,32.8z"/>
</svg>
