<?xml version="1.0" encoding="utf-8"?>
<!-- Generator: Adobe Illustrator 21.0.0, SVG Export Plug-In . SVG Version: 6.00 Build 0)  -->
<svg version="1.1" id="圖層_1" xmlns="http://www.w3.org/2000/svg" xmlns:xlink="http://www.w3.org/1999/xlink" x="0px" y="0px" viewBox="0 0 51 51" style="enable-background:new 0 0 51 51;" xml:space="preserve">
<style type="text/css">
	.st0{fill:#42777A;}
</style>
<g>
	<path class="st0" d="M44.3,23.4c0,3.5-0.9,6.5-2.6,9c-1.7,2.5-4.1,3.8-6.9,3.8c-1.8,0-3.1-0.4-4-1.2c-0.9-0.8-1.4-1.8-1.4-3.1h-0.2
		c-1.5,2.9-3.5,4.3-6.1,4.3c-1.7,0-3.2-0.9-4.1-2.3c-1-1.5-1.5-3.4-1.5-5.6c0-3.1,0.8-5.8,2.5-8.2c1.7-2.4,4-3.5,6.9-3.5
		c1.6,0,2.8,0.5,3.6,1.5h0.3l0.3-0.9l2.1-0.2c0.9-0.1,1.7,0.7,1.5,1.6c-0.8,5.1-1.2,8.3-1.2,9.7c0,1.5,0.2,2.6,0.6,3.3
		c0.4,0.7,1.1,1.1,2.1,1.1c1,0,1.9-0.8,2.7-2.5c0.7-1.7,1.1-3.6,1.1-5.9c0-4.1-1.2-7.5-3.5-10.3c-2.3-2.8-5.7-4.1-10.2-4.1
		c-4.1,0-7.4,1.6-9.9,4.8c-2.5,3.2-3.7,7-3.7,11.4c0,4.2,1.2,7.9,3.5,10.9c2.4,3,5.7,4.5,10,4.5c1.5,0,2.9-0.2,4.2-0.5
		c1.1-0.2,2.1,0.5,2.2,1.6v0c0.1,1-0.5,1.9-1.5,2.1c-1.5,0.3-3.2,0.4-5,0.4c-5.7,0-10.2-1.9-13.4-5.7C9.6,35.7,8,31.1,8,25.9
		c0-5.5,1.6-10.1,4.9-14C16.2,8,20.6,6,26.1,6c5.7,0,10.2,1.7,13.4,5.1C42.7,14.5,44.3,18.6,44.3,23.4z M29.9,21
		c-0.8-0.7-1.7-1-2.8-1c-1.7,0-3,0.8-4,2.4c-1,1.6-1.5,3.4-1.5,5.4c0,1.4,0.2,2.5,0.7,3.4c0.5,0.9,1.2,1.4,2.1,1.4
		c1.5,0,2.8-1.1,3.8-3.4C29.4,27,29.9,24.2,29.9,21z"/>
</g>
</svg>
