<?xml version="1.0" encoding="utf-8"?>
<!-- Generator: Adobe Illustrator 21.0.0, SVG Export Plug-In . SVG Version: 6.00 Build 0)  -->
<svg version="1.1" id="圖層_1" xmlns="http://www.w3.org/2000/svg" xmlns:xlink="http://www.w3.org/1999/xlink" x="0px" y="0px" viewBox="0 0 51 51" style="enable-background:new 0 0 51 51;" xml:space="preserve">
<style type="text/css">
	.st0{fill:#42777A;}
	.st1{fill:none;stroke:#323232;stroke-width:4;stroke-linecap:round;stroke-miterlimit:10;}
	.st2{fill:none;stroke:#323232;stroke-width:0.5;stroke-linecap:round;stroke-miterlimit:10;}
	.st3{fill:none;stroke:#323232;stroke-width:3;stroke-linecap:round;stroke-miterlimit:10;}
	.st4{fill:#42777A;}
</style>
<path class="st0" d="M39.3,44.5H11.7V27.1c0-1.1,0.9-2,2-2s2,0.9,2,2v13.4h19.6V27.1c0-1.1,0.9-2,2-2s2,0.9,2,2V44.5z M47.5,28.5
	c0.7-0.8,0.7-2.1-0.1-2.8L25.5,5.7L3.7,25.7c-0.8,0.7-0.9,2-0.1,2.8c0.7,0.8,2,0.9,2.8,0.1l19.2-17.5l19.2,17.5
	c0.4,0.3,0.9,0.5,1.3,0.5C46.5,29.1,47.1,28.9,47.5,28.5z"/>
</svg>
