<?xml version="1.0" encoding="utf-8"?>
<!-- Generator: Adobe Illustrator 21.0.0, SVG Export Plug-In . SVG Version: 6.00 Build 0)  -->
<svg version="1.1" id="圖層_1" xmlns="http://www.w3.org/2000/svg" xmlns:xlink="http://www.w3.org/1999/xlink" x="0px" y="0px"
	 viewBox="0 0 137 37" style="enable-background:new 0 0 137 37;" xml:space="preserve">
<style type="text/css">
	.st0{fill:#42777A;}
</style>
<g>
	<g>
		<path class="st0" d="M14.8,15.8c0.2,0.2,0.3,0.3,0.3,0.4c0,0.2-0.1,0.2-1.2,0.5c-0.8,0.8-2.2,2.2-4.9,4.3c2.2-0.1,2.8-0.1,4.5-0.2
			c-0.3-0.6-0.6-1-1-1.5l1.4-1c0.6,0.6,3.1,3.3,3.8,4.4l-2.4,1.8c0.3,0,0.4,0.1,0.4,0.3c0,0.2,0,0.2-0.4,1
			c-0.3,3.6-0.7,8.5-8.2,11.1l-1.1-1.6c2.5-1,4.2-1.9,5.4-4.2H5.9v-4.8c0-0.3,0-1.3-0.2-2.3l2.9,0.4c0.4,0,0.5,0,0.5,0.2
			c0,0.1-0.4,0.8-0.5,0.9v4.1H12c0.2-0.8,0.5-1.8,0.5-3.6c0-1.1-0.1-1.5-0.2-2l3,0.4c-0.3-0.8-0.5-1.4-1-2.4c-2.1,0.4-5,0.7-9,1
			c-0.5,0.4-0.6,0.5-0.8,0.5c-0.3,0-0.4-0.3-0.4-0.5l-0.5-2.6C4.7,21,5.1,21,7,21c0.4-0.3,0.8-0.7,1.7-1.7c-0.3-0.4-2.1-3.1-3.8-4.8
			l1.2-1.1c0.5,0.4,0.9,0.6,1.8,1.4c0.6-0.8,1.4-2,1.8-3H3v24.7H0V1h15.9v10.8h-4.8l1,0.8c0.1,0.1,0.3,0.2,0.3,0.3
			c0,0.3-0.5,0.4-1,0.6c-1,1-2.3,2.2-2.4,2.2c0.8,0.8,1.2,1.2,1.4,1.4c1.4-1.7,1.8-2.5,2.4-3.5L14.8,15.8z M13,5.6V2.5H3v3.2H13z
			 M3,7.1v3.3h10V7.1H3z M28.6,15.4c0.3,0.3,0.3,0.4,0.3,0.4c0,0.3-0.3,0.4-0.4,0.4c-0.2,0-0.4,0.1-0.7,0.2
			c-2.2,2.2-4.2,3.8-5.2,4.5c2.5,0,3.4-0.1,4.4-0.2c-0.4-0.6-0.6-1-0.8-1.4l1.2-1c1.3,1,3.6,3.4,4.3,4.3l-2.8,2.1
			c-0.2-0.6-0.3-1-1.1-2.7c-0.5,0.1-4,0.7-8.9,0.9c-0.4,0.5-0.5,0.5-0.6,0.5c-0.2,0-0.3-0.2-0.4-0.5l-0.5-2.4
			c0.7,0.2,1.2,0.3,3.1,0.3c0.8-0.8,1-0.9,1.2-1.2c-0.8-1.4-2.4-3.5-3.4-4.7l1.2-1.2c0.4,0.4,0.6,0.4,1.5,1.2
			c1.1-1.4,1.7-2.3,2.2-3.4h-4.4V1h15.9v31.1c0,2.5-0.4,4.4-3.4,4.4h-3.8l-0.7-2.1c0.8,0.3,1.9,0.7,3.3,0.7c1.3,0,1.6-0.6,1.6-2.9
			V11.8h-6.4l0.6,0.6c0.3,0.3,0.3,0.3,0.3,0.4c0,0.3-0.7,0.4-1,0.5c-1.2,1.3-2,2.2-2.9,3c0.8,0.8,1.2,1.1,1.6,1.5
			c2.2-2.5,2.7-3.4,3-4.1L28.6,15.4z M25.3,29.5v-3.1c0-1-0.2-1.7-0.3-2.3l3,0.2c0.3,0,0.5,0.1,0.5,0.3c0,0.1-0.4,1-0.5,1.2V31h-6.8
			v5.6h-2.8v-9.9c0-1.6-0.1-2.2-0.2-2.6l3,0.3c0.2,0,0.6,0.1,0.6,0.3c0,0.2-0.3,0.6-0.6,0.9v4H25.3z M31.7,5.6V2.5h-9.8v3.2H31.7z
			 M21.8,7.1v3.3h9.8V7.1H21.8z"/>
		<path class="st0" d="M68,7.3v1.4H57.4v7h8.3C65.6,27.6,65.2,31,64.6,33c-0.7,2-1.8,3.1-4.8,3.1h-3.2l-0.8-1.5
			c0.7,0,1.9,0.2,2.7,0.2c1.6,0,2.4-0.3,2.9-1.3c1.1-1.9,1.2-10.6,1.2-13.3c0-1.2,0-2-0.1-3h-5.2c-0.1,3.4-0.4,11.8-6.7,19.1
			l-1.2-0.9c4.6-6,4.8-12,4.8-19V8.7h-4.6V7.3h7V3.2c0-1.6-0.1-2-0.4-3l3.1,0.1c0.6,0,0.8,0,0.8,0.4c0,0.1,0,0.2-0.3,1.1v5.6H68z
			 M78.1,0.3c1,6.4,4.9,11.6,8.2,15l-1.4,1.2c-4.4-4.3-6-6.5-8.2-11.4c-2.3,4.6-4.9,8-8.7,11.4l-1.5-1.1c3.4-2.6,7.4-8.2,8.8-15.2
			H78.1z M82.4,36.9c-3-3-8-6.2-12.7-8.4l0.8-1.4c6.1,2.2,11.8,5.2,14.3,7.1L82.4,36.9z M80.9,25.1c-1.7-2.3-5.2-5.6-8-7.1l1-1.4
			c2.1,1.1,7.4,4.4,9.3,6L80.9,25.1z"/>
		<path class="st0" d="M132.9,17.8c0.6,0.3,0.6,0.4,0.6,0.5c0,0.3-0.3,0.5-0.8,0.7c-1.2,2.2-2.8,4.8-5.3,7.6
			c1.7,4.9,3.7,6.6,4.4,6.6c1,0,1.8-1.7,2.6-5.5c1.2,1,1.4,1.1,2.6,1.5c-1.8,6.8-3.6,7.4-4.9,7.4c-3.9,0-6.2-6-6.8-7.7
			c-4.5,4.3-8.4,5.8-9.9,6.4l-1.3-1.1c1.9-0.8,5.9-2.6,10.4-7.7c-0.5-1.7-1.8-6.3-2.2-13.4h-9.8v7.6c2-0.8,5.8-2.3,6-2.4v1.7
			c-1,0.5-5.2,2.4-6,2.8v10.5c0,2.8-1.3,2.9-3.6,2.9h-5.1l-0.5-1.9c1.5,0.3,3.5,0.4,5,0.4c1.2,0,1.2-0.4,1.2-2v-8.6
			c-1.1,0.5-5.8,2.7-6.8,3.1c-0.2,0.8-0.2,1.1-0.6,1.1c-0.2,0-0.2-0.1-0.5-0.6l-1.5-2.8c2.4-0.3,4.9-1.3,9.4-3.1v-8.8h-9.2v-1.5h9.2
			V4.4c-4.2,0.5-6.2,0.6-7.6,0.7l-0.6-1.4c5.1-0.5,12-1.8,14.7-3.6l2.4,2.3c0.1,0.1,0.3,0.3,0.3,0.6s-0.2,0.4-0.4,0.4
			c-0.2,0-1-0.1-1.1-0.1c-0.4,0-2.4,0.4-2.8,0.5c-0.9,0.2-1.4,0.2-1.9,0.3v7.8h9.8c0-1.2-0.3-8.4-0.3-9.2c-0.1-1.4-0.3-2.2-0.4-2.6
			l3.1,0.2c0.8,0,0.9,0.1,0.9,0.4c0,0.1-0.3,0.6-0.3,0.7c-0.2,0.5-0.2,3.9-0.2,4.6c0,2.2,0,3.8,0.2,5.8h11.2v1.5h-11.2
			c0.3,5.5,1.2,9.4,1.4,10.5c1.4-2.1,3.2-5.4,3.2-7.6L132.9,17.8z M132.4,8.6C131,5.8,130,4,128.2,2.1l1.2-1.1
			c1.3,0.9,4.3,3.7,5.6,5.5L132.4,8.6z"/>
	</g>
</g>
</svg>
