<?xml version="1.0" encoding="utf-8"?>
<!-- Generator: Adobe Illustrator 21.0.0, SVG Export Plug-In . SVG Version: 6.00 Build 0)  -->
<svg version="1.1" id="圖層_1" xmlns="http://www.w3.org/2000/svg" xmlns:xlink="http://www.w3.org/1999/xlink" x="0px" y="0px"
	 viewBox="0 0 188.5 37.1" style="enable-background:new 0 0 188.5 37.1;" xml:space="preserve">
<style type="text/css">
	.st0{fill:#42777A;}
</style>
<g>
	<g>
		<path class="st0" d="M12.2,9.6v1.4H6.5L6.7,17h5.6v1.4H6.7L7,24.6h12.4V13.4h-5.2v-11c0-1.3,0-1.4-0.1-2l2.8,0.2
			c0.2,0,0.4,0,0.4,0.2c0,0.1-0.1,0.2-0.4,0.8v3.6h5.2v1.4h-5.2V12h5.2v12.6h8l0.2-6.2h-6.6V17h6.6l0.2-5.9h-6.8V9.6h6.9l0.2-5.4
			h-7.6V2.8h10.8l-0.8,21.8h3.4V26H0v-1.4h4L3.2,3.2l2.4,0.3C7,3.2,9.3,2.4,10.8,0.9l1.8,2.3c0.1,0.1,0.2,0.2,0.2,0.4
			c0,0.2-0.1,0.2-1.1,0.3c-0.8,0.3-2.9,1.2-5.4,1.7l0.1,4H12.2z M1,35.4c5.5-2.7,8.8-5.5,11.2-8.2l2.1,2.2c0.1,0.1,0.4,0.4,0.4,0.5
			c0,0.3-0.4,0.4-1.1,0.5c-2.8,2-6.6,4.2-11.4,6.1L1,35.4z M16.7,14.6c0.4,0,0.6,0.1,0.6,0.3c0,0.2-0.2,0.3-0.6,0.5v8h-2.5v-7.8
			c0-0.2-0.2-0.9-0.2-1.2L16.7,14.6z M24.6,27.2c3.9,4.4,9,7.4,10.4,8.2l-1.2,1.3c-4.3-1.8-8.4-4.2-11.8-7.3L24.6,27.2z"/>
		<path class="st0" d="M83.4,18.1c0.6,0.3,0.6,0.4,0.6,0.5c0,0.3-0.3,0.5-0.8,0.7c-1.2,2.2-2.8,4.8-5.3,7.6c1.7,4.9,3.7,6.6,4.4,6.6
			c1,0,1.8-1.7,2.6-5.5c1.2,1,1.4,1.1,2.6,1.5c-1.8,6.8-3.6,7.4-4.9,7.4c-3.9,0-6.2-6-6.8-7.7c-4.5,4.3-8.4,5.8-9.9,6.4l-1.3-1.1
			c1.9-0.8,5.9-2.6,10.4-7.7c-0.5-1.7-1.8-6.3-2.2-13.4h-9.8v7.6c2-0.8,5.8-2.3,6-2.4v1.7c-1,0.5-5.2,2.4-6,2.8v10.5
			c0,2.8-1.3,2.9-3.6,2.9h-5.1l-0.5-1.9c1.5,0.3,3.5,0.4,5,0.4c1.2,0,1.2-0.4,1.2-2v-8.6c-1.1,0.5-5.8,2.7-6.8,3.1
			c-0.2,0.8-0.2,1.1-0.6,1.1c-0.2,0-0.2-0.1-0.5-0.6l-1.5-2.8c2.4-0.3,4.9-1.3,9.4-3.1v-8.8h-9.2V12h9.2V4.7
			c-4.2,0.5-6.2,0.6-7.6,0.7L51.7,4c5.1-0.5,12-1.8,14.7-3.6l2.4,2.3C68.8,2.8,69,3,69,3.2s-0.2,0.4-0.4,0.4c-0.2,0-1-0.1-1.1-0.1
			c-0.4,0-2.4,0.4-2.8,0.5c-0.9,0.2-1.4,0.2-1.9,0.3V12h9.8c0-1.2-0.3-8.4-0.3-9.2c-0.1-1.4-0.3-2.2-0.4-2.6L75,0.5
			c0.8,0,0.9,0.1,0.9,0.4c0,0.1-0.3,0.6-0.3,0.7c-0.2,0.5-0.2,3.9-0.2,4.6c0,2.2,0,3.8,0.2,5.8h11.2v1.5H75.6
			C75.9,19,76.8,22.9,77,24c1.4-2.1,3.2-5.4,3.2-7.6L83.4,18.1z M82.9,8.8c-1.4-2.8-2.4-4.5-4.2-6.5l1.2-1.1
			c1.3,0.9,4.3,3.7,5.6,5.5L82.9,8.8z"/>
		<path class="st0" d="M111.8,36.8h-2.9v-8.4c-1,0.4-5.4,1.7-6.3,2c-0.7,0.8-0.8,0.8-1,0.8c-0.2,0-0.2-0.1-0.5-0.6l-1.2-2.7
			c1.2,0,1.4,0,2.2-0.1V3h-1.3V1.6h13.4V3h-2.4V36.8z M108.9,3h-3.8v6.8h3.8V3z M108.9,11.3h-3.8v7h3.8V11.3z M108.9,19.7h-3.8v7.6
			c1.6-0.3,1.8-0.4,3.8-0.8V19.7z M124.8,6c0.2,0.2,0.3,0.2,0.3,0.4c0,0.4-0.4,0.5-0.8,0.7c-1.2,1.2-6,6.7-7,7.8
			c1.4-0.1,2.8-0.2,4.2-0.4c-0.5-1.1-0.7-1.4-1-1.9l1.2-0.8c2,2.4,2.1,2.5,4,5l-2.7,1.8c-0.4-1.4-0.6-1.9-0.8-2.5
			c-2.8,0.3-3.3,0.4-7.7,0.8c-0.5,0.4-0.9,0.5-1,0.5c-0.3,0-0.4-0.2-0.6-0.6l-0.8-2c1,0.1,1.6,0.2,2.7,0.2c1-1.1,2.1-2.6,2.8-3.4
			c-0.4-0.7-2.3-3.4-4.6-5.2l0.9-1.2c0.5,0.3,0.7,0.4,2,1.2c1-1.4,2.4-4.1,3.2-6.3l2.4,1.5c0.3,0.2,0.5,0.4,0.5,0.5
			c0,0.2-0.4,0.3-0.7,0.5c-0.3,0.2-0.9,0.8-1.5,1.4c-0.6,0.6-1.8,2-2.8,3c1.2,0.8,2,1.4,2.6,1.9c0.6-0.8,2.5-3.2,3.1-4.7L124.8,6z
			 M123.6,20c0.6,0.1,0.6,0.1,0.6,0.3c0,0.2,0,0.2-0.4,0.9c-0.2,9.5-0.2,12.5-8.2,15.8l-1.4-1.6c5.2-2.2,6-4.2,6.5-6.6H115v-7.4
			c0-1.3,0-1.5-0.2-2.4l2.6,0.3c0.4,0,0.6,0,0.6,0.3c0,0.2-0.2,1-0.3,1.1v6.7h3.3c0.2-1.6,0.2-3.6,0.2-3.9c0-2.3-0.1-2.9-0.3-4
			L123.6,20z M137,6.2c0.3,0.2,0.4,0.3,0.4,0.4c0,0.2-0.3,0.4-0.8,0.6c-2.1,2.4-5.3,6.3-6.8,8c1.9-0.1,2.6-0.2,4.7-0.4
			c-0.5-1.2-0.8-1.7-1.2-2.3l1.3-0.9c1.6,1.9,3.4,4.9,3.6,5.2l-2.3,2.1c-0.2-0.6-0.4-1.2-0.8-2.5c-1.3,0.1-7,0.7-8.2,0.9
			c-0.6,0.5-0.6,0.6-0.8,0.6c-0.2,0-0.2-0.2-0.3-0.5l-0.5-2.1c1.1,0.1,1.2,0.1,2.2,0c0.5-0.5,1.9-2.4,2.8-3.6
			c-0.6-0.9-2.3-3.3-4.3-4.7l1-1.2c0.6,0.3,0.8,0.4,1.3,0.8c0.6-0.9,3-4.6,3.5-6.3l2.4,1.5c0.4,0.2,0.4,0.3,0.4,0.4
			c0,0.2,0,0.3-1.1,0.6c-1,1.2-3.1,3.6-4,4.6c1.4,1,1.5,1.1,2.4,2c0.6-0.8,2.3-3,3-4.8L137,6.2z M133.6,27.4v-4.6
			c0-1.5-0.1-2.2-0.2-2.6l2.6,0.3c0.6,0.1,0.7,0.1,0.7,0.3c0,0.2,0,0.3-0.4,1.3v9.5h-2.7v-2.7h-4v7.9h-2.8V21.7
			c0-1.4-0.1-2.1-0.2-2.6l2.5,0.3c0.8,0.1,0.8,0.1,0.8,0.4c0,0.3-0.3,0.9-0.4,1.1v6.6H133.6z"/>
		<path class="st0" d="M165.2,7.4c0.4,0.2,0.5,0.3,0.5,0.4c0,0.2-0.6,0.6-1,0.8c-2.6,3.6-4.3,5.8-7.7,9.4c1.7-0.1,4.3-0.3,5.9-0.5
			c-0.6-1.4-0.9-1.7-1.3-2.3l1.2-0.9c1.7,1.7,3.9,4.7,4.9,6.6l-2.8,1.4c-0.2-0.8-0.4-1.3-1.2-3.3c-1.5,0.2-2.2,0.3-2.8,0.4v17.4h-3
			v-17c-3.2,0.4-4.5,0.5-5.6,0.6c0,0.3-0.1,0.8-0.6,0.8c-0.3,0-0.3-0.1-0.5-0.8l-0.7-2.3c1.2,0.1,2.6,0.1,3.8,0
			c0.6-0.6,1.6-1.7,3.5-4c-0.4-0.6-2.9-3.7-6.6-6.3l0.9-1.5c0.7,0.4,1.2,0.6,2.6,1.7c1.8-2.2,4.3-5.9,4.6-8.1l2.6,1.5
			c0.2,0.1,0.5,0.3,0.5,0.5c0,0.2-0.9,0.6-1,0.7c-1.6,2.3-4.4,5.6-5.2,6.5c1.2,0.9,3.4,2.6,3.5,2.6c2.4-3.2,2.9-4.5,3.3-5.9
			L165.2,7.4z M155.7,23c0.8,0.2,0.9,0.2,0.9,0.4c0,0.2-0.6,0.8-0.7,0.9c-1.1,5.1-3,9.3-3.6,10.6l-1.6-0.6c1.7-3.3,2.4-8.9,2.4-10.2
			c0-0.6-0.1-1-0.1-1.6L155.7,23z M164.2,22.5c1.2,2.2,2.8,6.1,3.3,8.9l-2.8,1.1c-0.2-4-1.2-7-2-9.3L164.2,22.5z M187.7,21.8
			c-4.2-1.5-7.4-3.5-9.7-5.4c-1.7,1.4-4.8,3.6-9.2,5.2l-0.9-1.7c3-0.9,5.9-2.9,8.4-5.1c-0.7-0.7-3-3.1-4.5-6.8
			c-2.1,3.3-3.3,4.8-4.8,6.3l-1.3-1c2.3-2.7,5.8-8.5,6.2-13l3.4,0.9c0.4,0.1,0.6,0.2,0.6,0.5c0,0.2-0.1,0.4-0.3,0.5
			s-0.4,0.3-0.7,0.4c-0.4,0.8-0.6,1.2-1.1,2.1h12.1c-0.8,3.7-3.6,7.9-6.2,10.4c3,2.8,5.4,3.9,8.9,5.4L187.7,21.8z M172.6,34.9v1.8
			h-2.9V21.6h15.7v15.2h-3v-1.8H172.6z M182.4,33.5V23h-9.8v10.5H182.4z M173.8,6c1,3.2,2.6,5.5,4,7.2c3.1-3.5,3.7-5.8,4-7.2H173.8z
			"/>
	</g>
</g>
</svg>
