<?xml version="1.0" encoding="utf-8"?>
<!-- Generator: Adobe Illustrator 21.0.0, SVG Export Plug-In . SVG Version: 6.00 Build 0)  -->
<svg version="1.1" id="圖層_1" xmlns="http://www.w3.org/2000/svg" xmlns:xlink="http://www.w3.org/1999/xlink" x="0px" y="0px"
	 viewBox="0 0 138 37" style="enable-background:new 0 0 138 37;" xml:space="preserve">
<style type="text/css">
	.st0{fill:#42777A;}
</style>
<g>
	<g>
		<path class="st0" d="M9.8,37h-3V13.8c-2,2.3-3.8,3.8-5.2,5L0,17.9c6.5-5.7,9.5-13,10-14.2c0.6-1.3,0.7-2.2,0.8-3.3l3.6,1.3
			c0.3,0.1,0.5,0.2,0.5,0.5c0,0.2-0.1,0.3-1.1,1.3c-1.2,1.9-2.4,4-4.1,6.4V37z M11.9,15.7c3.6-3.8,6.4-9.9,7.3-12.4
			c0.4-1.2,0.5-2.1,0.5-2.8l3.6,1.1c0.5,0.2,0.6,0.2,0.6,0.4c0,0.2-0.1,0.3-1,1.5c-0.7,1.4-1.3,2.6-2.4,4.2h16.8v1.4H24.9v8.2h11.5
			v1.4H24.9v8.2h11.5v1.4H24.9V37h-3V9.1h-2.3c-2.4,3.5-3.5,5.1-5.9,7.4L11.9,15.7z"/>
		<path class="st0" d="M55.6,37h-3V19.9h14.8v15.5H55.6V37z M64.6,34V21.3h-9V34H64.6z M80.4,1.8v13.4H58.4V1.8H80.4z M61.6,3.2
			v10.5h15.7V3.2H61.6z M74.1,35.4V37h-2.9V19.9h14.9V37H83v-1.6H74.1z M83,34V21.3h-8.9V34H83z"/>
		<path class="st0" d="M121,10.5h11V12h-11v3.5h11v1.4h-11v3.6h15v1.4h-15v3.7H138V27h-14.6c2.4,2.6,5,4.7,13.6,7.8l-1.2,1.5
			c-8.9-3-12-5.2-14.6-7.8V37h-3.2v-8.2c-2.8,2.6-7.6,6-14.3,7.6l-1.1-1.4c4.1-0.7,10.3-4.4,13.3-7.9h-14v-1.4h16.1v-3.7h-11V9
			c-2.4,2.5-3.7,3.4-4.4,3.9l-1.2-0.8c0.7-0.6,5.6-4.6,8.5-12.1l2.8,1.3c0.2,0.1,0.4,0.2,0.4,0.5c0,0.4-0.4,0.6-0.8,0.6
			c-0.4,0.6-0.9,1.4-2.4,3.3h8.1c0.7-1,2.2-3.4,2.9-5.5l2.8,0.9c0.3,0.1,0.6,0.2,0.6,0.4c0,0.4-0.3,0.5-0.9,0.6
			c-1.2,1.6-2,2.7-2.8,3.6H135v1.4h-14V10.5z M117.9,7.2h-8v3.3h8V7.2z M117.9,12h-8v3.5h8V12z M117.9,16.9h-8v3.6h8V16.9z"/>
	</g>
</g>
</svg>
